<svg  xmlns="http://www.w3.org/2000/svg">

<symbol id ="cssSkillIcon" viewBox="0 0 120 119">
    <path d="M22.1325 101.154L13.71 7.4375H106.29L97.8563 101.139L59.9438 111.562L22.1325 101.154Z" fill="#1572B6"/>
    <path d="M60 103.597L90.6375 95.174L97.845 15.1018H60V103.597Z" fill="#33A9DC"/>
    <path d="M60 49.054H75.3375L76.395 37.2842H60V25.7895H89.0625L88.785 28.8724L85.9387 60.5487H60V49.054Z" fill="white"/>
    <path d="M60.0713 78.9044L60.0188 78.9193L47.1113 75.4609L46.2863 66.2942H34.65L36.2738 84.3413L60.015 90.8788L60.0713 90.8639V78.9044Z" fill="#EBEBEB"/>
    <path d="M74.3512 60.0615L72.9562 75.4534L60.03 78.9119V90.8714L83.79 84.3412L83.9662 82.4001L85.98 60.0615H74.3512Z" fill="white"/>
    <path d="M60.0413 25.7895V37.2842H32.0438L31.8113 34.6996L31.2825 28.8724L31.005 25.7895H60.0413ZM60 49.054V60.5487H47.2538L47.0213 57.9641L46.4963 52.1369L46.2188 49.054H60Z" fill="#EBEBEB"/>
</symbol>

<symbol id ="educationIcon" viewBox="0 0 30 23">

   <g clip-path="url(#clip0_6_76)">
<path d="M29.77 0H7.28003V22.49H29.77V0Z" fill="white"/>
<path d="M9.98 5.91999C6.53 6.44999 4.22 7.70999 2.16 7.11999L1.5 8.10999V20.85C3.66 21.48 6.06 20.64 9.72 20.39C13.55 20.13 14.87 21.48 14.87 21.48V19.83V8.73999V7.70999C14.87 7.70999 13.42 5.38999 9.98 5.91999Z" stroke="#A053ED" stroke-width="0.75" stroke-miterlimit="10" stroke-linecap="round" stroke-linejoin="round"/>
<path d="M2.16003 19.22C4.21003 19.82 6.53003 18.56 9.97003 18.03C13.41 17.5 14.87 19.82 14.87 19.82V7.70999C14.87 7.70999 13.41 5.38999 9.97003 5.91999C6.53003 6.44999 4.22003 7.70999 2.16003 7.11999V19.22Z" stroke="#A053ED" stroke-width="0.75" stroke-miterlimit="10" stroke-linecap="round" stroke-linejoin="round"/>
<path d="M19.77 5.91999C23.21 6.44999 25.53 7.70999 27.58 7.10999L28.24 8.09999V20.84C26.08 21.47 23.68 20.63 20.02 20.38C16.19 20.12 14.87 21.47 14.87 21.47V19.82V8.73999V7.70999C14.87 7.70999 16.33 5.38999 19.77 5.91999Z" stroke="#A053ED" stroke-width="0.75" stroke-miterlimit="10" stroke-linecap="round" stroke-linejoin="round"/>
<path d="M27.59 19.22C25.54 19.82 23.22 18.56 19.78 18.03C16.34 17.5 14.88 19.82 14.88 19.82V7.70999C14.88 7.70999 16.34 5.38999 19.78 5.91999C23.22 6.44999 25.54 7.70999 27.59 7.10999V19.22Z" stroke="#A053ED" stroke-width="0.75" stroke-miterlimit="10" stroke-linecap="round" stroke-linejoin="round"/>
<path d="M28.11 7.88998L29.38 7.90998V21.95L14.88 22.26L0.380005 21.95V7.90998L1.64 7.88998" stroke="#A053ED" stroke-width="0.75" stroke-miterlimit="10" stroke-linecap="round" stroke-linejoin="round"/>
</g>
<defs>
<clipPath id="clip0_6_76">
<rect width="29.77" height="22.64" fill="white"/>
</clipPath>
</defs>

</symbol>

<symbol id ="githubIcon" viewBox="0 0 48 48">

  <g clip-path="url(#clip0_910_21)">
<path fill-rule="evenodd" clip-rule="evenodd" d="M24.0005 1C18.303 1.00296 12.7923 3.02092 8.45374 6.69305C4.11521 10.3652 1.23181 15.452 0.319089 21.044C-0.593628 26.636 0.523853 32.3684 3.47174 37.2164C6.41963 42.0643 11.0057 45.7115 16.4099 47.5059C17.6021 47.7272 18.0512 46.9883 18.0512 46.36C18.0512 45.7317 18.0273 43.91 18.0194 41.9184C11.3428 43.3608 9.93197 39.101 9.93197 39.101C8.84305 36.3349 7.26927 35.6078 7.26927 35.6078C5.09143 34.1299 7.43223 34.1576 7.43223 34.1576C9.84455 34.3275 11.1123 36.6194 11.1123 36.6194C13.2504 40.2667 16.7278 39.2116 18.0949 38.5952C18.3095 37.0501 18.9335 35.999 19.621 35.4023C14.2877 34.8017 8.68408 32.7548 8.68408 23.6108C8.65102 21.2394 9.53605 18.9461 11.156 17.2054C10.9096 16.6047 10.087 14.1785 11.3905 10.8829C11.3905 10.8829 13.4054 10.2427 17.9916 13.3289C21.9253 12.2592 26.0757 12.2592 30.0095 13.3289C34.5917 10.2427 36.6026 10.8829 36.6026 10.8829C37.9101 14.1706 37.0875 16.5968 36.8411 17.2054C38.4662 18.9464 39.353 21.2437 39.317 23.6187C39.317 32.7824 33.7015 34.8017 28.3602 35.3905C29.2186 36.1334 29.9856 37.5836 29.9856 39.8122C29.9856 43.0051 29.9578 45.5736 29.9578 46.36C29.9578 46.9962 30.391 47.7391 31.6071 47.5059C37.0119 45.7113 41.5984 42.0634 44.5462 37.2147C47.4941 32.3659 48.611 26.6326 47.6972 21.0401C46.7835 15.4476 43.8986 10.3607 39.5587 6.68921C35.2187 3.01771 29.7067 1.00108 24.0085 1H24.0005Z" fill="#8A30CD"/>
<path d="M9.08887 35.264C9.03721 35.3826 8.84645 35.4181 8.69146 35.3351C8.53646 35.2522 8.42122 35.098 8.47686 34.9755C8.5325 34.853 8.71928 34.8214 8.87428 34.9044C9.02927 34.9874 9.14848 35.1455 9.08887 35.264Z" fill="#8A30CD"/>
<path d="M10.0626 36.3428C9.98028 36.384 9.88612 36.3955 9.79622 36.3753C9.70632 36.3551 9.62629 36.3045 9.56979 36.2321C9.41479 36.0662 9.38298 35.837 9.50221 35.7342C9.62143 35.6315 9.83606 35.6789 9.99105 35.8449C10.146 36.0108 10.1818 36.24 10.0626 36.3428Z" fill="#8A30CD"/>
<path d="M11.0085 37.714C10.8614 37.8167 10.6111 37.714 10.472 37.5085C10.4335 37.4716 10.4029 37.4274 10.382 37.3785C10.3611 37.3297 10.3503 37.2771 10.3503 37.224C10.3503 37.1709 10.3611 37.1183 10.382 37.0694C10.4029 37.0205 10.4335 36.9763 10.472 36.9395C10.619 36.8407 10.8694 36.9395 11.0085 37.141C11.1476 37.3425 11.1516 37.6112 11.0085 37.714Z" fill="#8A30CD"/>
<path d="M12.2921 39.0417C12.161 39.1879 11.8947 39.1484 11.6761 38.9508C11.4575 38.7532 11.4059 38.4845 11.537 38.3423C11.6682 38.2 11.9344 38.2395 12.161 38.4331C12.3875 38.6268 12.4312 38.8994 12.2921 39.0417Z" fill="#8A30CD"/>
<path d="M14.0923 39.8162C14.0327 40.0019 13.7625 40.0849 13.4922 40.0059C13.222 39.9268 13.0432 39.7055 13.0948 39.5159C13.1465 39.3262 13.4207 39.2393 13.6949 39.3262C13.9691 39.4131 14.144 39.6226 14.0923 39.8162Z" fill="#8A30CD"/>
<path d="M16.0557 39.9505C16.0557 40.1442 15.8331 40.3101 15.547 40.3141C15.2608 40.318 15.0264 40.16 15.0264 39.9663C15.0264 39.7727 15.2489 39.6067 15.535 39.6028C15.8212 39.5988 16.0557 39.753 16.0557 39.9505Z" fill="#8A30CD"/>
<path d="M17.8838 39.6463C17.9196 39.8399 17.7208 40.0414 17.4347 40.0888C17.1486 40.1363 16.8982 40.0217 16.8624 39.832C16.8267 39.6423 17.0333 39.4368 17.3115 39.3855C17.5897 39.3341 17.848 39.4526 17.8838 39.6463Z" fill="#8A30CD"/>
</g>
<defs>
<clipPath id="clip0_910_21">
<rect width="48" height="48" fill="white"/>
</clipPath>
</defs>

</symbol>

<symbol id ="htmlSkillIcon" viewBox="0 0 120 120">
    <path d="M22.1325 102.004L13.7062 7.5H106.294L97.8562 101.989L59.9437 112.5L22.1325 102.004Z" fill="#E44F26"/>
    <path d="M60 104.467L90.6375 95.9737L97.845 15.2287H60V104.467Z" fill="#F1662A"/>
    <path d="M60 50.2763H44.6625L43.605 38.4075H60V26.8163H30.9375L31.215 29.9288L34.0613 61.8675H60V50.2763ZM60 80.3775L59.9475 80.3925L47.04 76.9088L46.215 67.665H34.5787L36.2025 85.86L59.9475 92.4525L60 92.4375V80.3775Z" fill="#EBEBEB"/>
    <path d="M59.9587 50.2763V61.8675H74.2312L72.8887 76.9013L59.9587 80.3888V92.4488L83.7225 85.86L83.895 83.9025L86.6175 53.3888L86.9025 50.2763H59.9587ZM59.9587 26.8163V38.4075H87.9562L88.1887 35.805L88.7175 29.9288L88.995 26.8163H59.9587Z" fill="white"/> 
</symbol>

<symbol id ="jsSkillIcon" viewBox="0 0 120 120">
   <path d="M7.5 7.5H112.5V112.5H7.5V7.5Z" fill="#F5DE19"/>
    <path d="M78.0337 89.5312C78.9284 91.3485 80.3183 92.8759 82.0434 93.9375C83.7684 94.9991 85.7583 95.5515 87.7837 95.5313C91.8712 95.5313 94.485 93.4875 94.485 90.6562C94.485 87.2812 91.8 86.0738 87.3 84.105L84.8325 83.0475C77.7075 80.0138 72.9825 76.215 72.9825 68.1825C72.9825 60.7838 78.6075 55.1475 87.4312 55.1475C90.2876 54.9412 93.1415 55.5805 95.637 56.9856C98.1324 58.3907 100.159 60.4994 101.464 63.0488L93.75 67.98C93.2476 66.716 92.3728 65.6345 91.2416 64.879C90.1104 64.1236 88.7763 63.7298 87.4162 63.75C86.8228 63.6906 86.2236 63.7555 85.6566 63.9404C85.0897 64.1254 84.5675 64.4265 84.1233 64.8244C83.6792 65.2224 83.3228 65.7085 83.0768 66.2518C82.8309 66.7951 82.7009 67.3837 82.695 67.98C82.695 70.9388 84.5287 72.1388 88.7625 73.98L91.23 75.0375C99.615 78.6338 104.355 82.2975 104.355 90.5363C104.355 99.42 97.3762 104.287 88.005 104.287C84.3536 104.52 80.713 103.691 77.5223 101.901C74.3317 100.11 71.7274 97.4342 70.0237 94.1963L78.0337 89.5312ZM43.1775 90.3863C44.7262 93.135 46.1362 95.46 49.5262 95.46C52.7662 95.46 54.8137 94.1925 54.8137 89.2612V55.71H64.68V89.3925C64.68 99.6075 58.68 104.257 49.9462 104.257C46.8591 104.426 43.7931 103.657 41.1513 102.051C38.5096 100.444 36.4157 98.0761 35.145 95.2575L43.1775 90.3863Z" fill="black"/>
</symbol>

<symbol id ="reactSkillIcon" viewBox="0 0 113 101">

   <g clip-path="url(#clip0_9_38)">
<path d="M92.9055 32.7027C91.7031 32.2887 90.4904 31.9051 89.2687 31.5523C89.4739 30.7106 89.6628 29.8792 89.8305 29.0623C92.5838 15.6484 90.7839 4.8418 84.636 1.28376C78.7415 -2.1272 69.1016 1.4295 59.3659 9.93344C58.4064 10.773 57.4682 11.6368 56.5521 12.524C55.9389 11.9341 55.3148 11.3556 54.6803 10.7888C44.4767 1.69618 34.2493 -2.13606 28.1081 1.43216C22.2189 4.85376 20.475 15.0127 22.9537 27.7254C23.2004 28.9844 23.4788 30.237 23.7888 31.4819C22.3411 31.8947 20.9442 32.3342 19.6073 32.802C7.6444 36.9881 0.00473022 43.5483 0.00473022 50.3529C0.00473022 57.3808 8.20626 64.43 20.6661 68.7044C21.6763 69.0495 22.6948 69.3692 23.7208 69.6634C23.3876 71.0042 23.0918 72.354 22.8337 73.7114C20.4706 86.2035 22.316 96.1223 28.1893 99.5222C34.2555 103.033 44.437 99.4248 54.3506 90.7268C55.1545 90.0197 55.9406 89.2925 56.7084 88.546C57.7004 89.5066 58.7189 90.4393 59.7627 91.343C69.366 99.6365 78.8501 102.985 84.7177 99.5762C90.7781 96.055 92.748 85.3995 90.1907 72.4356C89.9892 71.42 89.7633 70.4094 89.5132 69.4047C90.2282 69.1921 90.93 68.9733 91.6141 68.7456C104.567 64.4384 112.995 57.4748 112.995 50.3529C112.995 43.5235 105.109 36.919 92.9055 32.7027ZM90.0962 64.1474C89.4783 64.3525 88.8445 64.5505 88.1983 64.7432C86.7683 60.1995 84.8386 55.3684 82.4769 50.3764C84.7305 45.5036 86.586 40.734 87.9759 36.22C89.1318 36.5558 90.2533 36.9097 91.3347 37.2832C101.791 40.8961 108.169 46.2372 108.169 50.3529C108.169 54.7367 101.281 60.4277 90.0962 64.1474ZM85.4557 73.3765C86.5865 79.1087 86.7476 84.2916 85.9986 88.3435C85.3259 91.9844 83.9727 94.4115 82.299 95.3839C78.7385 97.4526 71.1235 94.7637 62.9109 87.6707C61.9401 86.8305 60.9927 85.9634 60.0698 85.0703C63.2539 81.5757 66.4357 77.5131 69.5412 73.0009C75.0036 72.5145 80.1641 71.7189 84.8439 70.6331C85.0694 71.5426 85.2733 72.4573 85.4557 73.3765ZM38.5257 95.0264C35.0468 96.2592 32.2759 96.2946 30.6009 95.3254C27.0369 93.2624 25.5552 85.298 27.5762 74.6151C27.8165 73.3527 28.0915 72.0972 28.4011 70.8502C33.0293 71.8779 38.1523 72.6168 43.6275 73.0624C46.7542 77.4776 50.0278 81.5358 53.327 85.0894C52.6259 85.7703 51.9082 86.4338 51.1745 87.0793C46.7904 90.9252 42.3974 93.654 38.5257 95.0264ZM22.2277 64.1204C16.7181 62.2302 12.168 59.7738 9.04928 57.0933C6.24658 54.6849 4.83199 52.2932 4.83199 50.3529C4.83199 46.2234 10.9657 40.9564 21.1962 37.3766C22.4378 36.9425 23.7372 36.5328 25.0856 36.1483C26.4997 40.7641 28.3543 45.5904 30.5925 50.4708C28.3252 55.4233 26.4441 60.3267 25.0163 64.997C24.0797 64.7278 23.1499 64.4355 22.2277 64.1204ZM27.691 26.7947C25.5675 15.9031 26.9777 7.68707 30.5268 5.62499C34.3067 3.42868 42.6653 6.56013 51.4755 14.4115C52.05 14.9247 52.6152 15.4482 53.1708 15.9819C49.8879 19.52 46.6443 23.5481 43.5454 27.9371C38.2313 28.4315 33.1445 29.2253 28.4678 30.2889C28.1796 29.1311 27.9206 27.9661 27.691 26.7951V26.7947ZM76.4301 38.8739C75.3255 36.9589 74.1798 35.0679 72.994 33.2024C76.5991 33.66 80.0533 34.2673 83.2969 35.0098C82.3233 38.1426 81.1095 41.4175 79.6808 44.7753C78.6365 42.7867 77.5527 40.8191 76.4301 38.8739ZM56.5543 19.4443C58.7806 21.8652 61.0104 24.5678 63.2036 27.5003C58.7546 27.2895 54.2981 27.2886 49.849 27.4977C52.0444 24.5922 54.2932 21.8931 56.5543 19.4443ZM36.551 38.9071C35.4425 40.8367 34.3789 42.792 33.3612 44.7713C31.9559 41.4255 30.7532 38.1355 29.7711 34.9584C32.9949 34.2346 36.4327 33.6427 40.0149 33.1936C38.8159 35.0705 37.6609 36.9754 36.551 38.9067V38.9071ZM40.1177 67.8569C36.4168 67.4423 32.9274 66.8811 29.7045 66.1767C30.702 62.9429 31.9312 59.5829 33.367 56.1653C34.3887 58.1461 35.4566 60.1026 36.57 62.0331C37.7149 64.0176 38.9004 65.9614 40.1177 67.8569ZM56.6876 81.6027C54.3996 79.1255 52.1177 76.3848 49.8892 73.4372C52.0528 73.5222 54.2583 73.5657 56.5 73.5657C58.8031 73.5657 61.0797 73.5138 63.3205 73.4137C61.1203 76.4145 58.8989 79.1592 56.6876 81.6027ZM79.7262 55.9908C81.2366 59.446 82.5095 62.7883 83.5203 65.9667C80.2444 66.7171 76.7073 67.3214 72.9804 67.7701C74.1746 65.87 75.3311 63.9462 76.4491 61.9998C77.5858 60.0215 78.6784 58.0179 79.7262 55.9908ZM72.268 59.5794C70.5564 62.5635 68.7487 65.4909 66.8475 68.3571C63.4038 68.6019 59.9524 68.7235 56.5 68.7216C52.9837 68.7216 49.5635 68.6118 46.27 68.3974C44.3192 65.5378 42.477 62.6053 40.7471 59.6059H40.7476C39.0259 56.6225 37.4177 53.5745 35.9265 50.4685C37.4139 47.3619 39.0172 44.3124 40.733 41.3267L40.7326 41.3272C42.4477 38.3407 44.2753 35.4206 46.2113 32.5734C49.5714 32.3182 53.0172 32.1853 56.4996 32.1853H56.5C59.9983 32.1853 63.4485 32.3196 66.8078 32.5765C68.7243 35.4195 70.5401 38.3295 72.2521 41.301C73.9736 44.2802 75.5981 47.3147 77.1231 50.3999C75.6138 53.5166 73.9944 56.5784 72.268 59.5794ZM82.2253 5.48058C86.0087 7.67068 87.4802 16.5024 85.103 28.0842C84.9512 28.8231 84.7808 29.5757 84.5954 30.339C79.9072 29.2528 74.8169 28.4452 69.4874 27.9433C66.3828 23.506 63.1656 19.4717 59.9361 15.9793C60.7825 15.1604 61.649 14.3628 62.5349 13.5872C70.8768 6.30142 78.6731 3.4247 82.2253 5.48058ZM56.5 40.2263C62.0723 40.2263 66.5898 44.7603 66.5898 50.3529C66.5898 55.9456 62.0723 60.4795 56.5 60.4795C50.9278 60.4795 46.4103 55.9456 46.4103 50.3529C46.4103 44.7603 50.9278 40.2263 56.5 40.2263Z" fill="#00D8FF"/>
</g>
<defs>
<clipPath id="clip0_9_38">
<rect width="113" height="101" fill="white"/>
</clipPath>
</defs>

</symbol>

<symbol id ="langIcon" viewBox="0 0 24 24">
   <path d="M4 6.6335C4.13986 6.57696 4.308 6.51452 4.50288 6.45153C5.19213 6.22874 6.21301 6 7.5 6C8.78699 6 9.80787 6.22874 10.4971 6.45153C10.692 6.51452 10.8601 6.57696 11 6.6335V17.5129C10.1488 17.2485 8.96016 17 7.5 17C6.03984 17 4.85122 17.2485 4 17.5129V6.6335ZM12 4.88528C11.7743 4.78519 11.4765 4.66622 11.1123 4.54847C10.2546 4.27126 9.02551 4 7.5 4C5.97449 4 4.74537 4.27126 3.88775 4.54847C3.45896 4.68707 3.12235 4.82736 2.88689 4.93656C2.76911 4.99119 2.67645 5.03812 2.61002 5.07329C2.5768 5.09089 2.55011 5.10555 2.5301 5.11679L2.5051 5.131L2.49638 5.13607L2.49297 5.13807L2.49151 5.13893C2.48954 5.1401 2.2451 5.28495 2.4902 5.13971C2.18633 5.31978 2 5.64679 2 6V19C2 19.3593 2.19275 19.691 2.50493 19.8689C2.8169 20.0466 3.20021 20.0435 3.50921 19.8606C3.50648 19.8622 3.50477 19.8632 3.50477 19.8632L3.50609 19.8625L3.50765 19.8616L3.50921 19.8606C3.51529 19.8572 3.52757 19.8505 3.54599 19.8408C3.58283 19.8213 3.64398 19.7901 3.72834 19.7509C3.89718 19.6726 4.15822 19.5629 4.50288 19.4515C5.19213 19.2287 6.21301 19 7.5 19C8.78699 19 9.80787 19.2287 10.4971 19.4515C10.8418 19.5629 11.1028 19.6726 11.2717 19.7509C11.356 19.7901 11.4172 19.8213 11.454 19.8408C11.4724 19.8505 11.4847 19.8573 11.4908 19.8608C11.4936 19.8623 11.4952 19.8632 11.4952 19.8632M11.4952 19.8632L11.4939 19.8625L11.4924 19.8616L11.4908 19.8608C11.8048 20.0462 12.1954 20.0463 12.5092 19.8606C12.5153 19.8572 12.5276 19.8505 12.546 19.8408C12.5828 19.8213 12.644 19.7901 12.7283 19.7509C12.8972 19.6726 13.1582 19.5629 13.5029 19.4515C14.1921 19.2287 15.213 19 16.5 19C17.787 19 18.8079 19.2287 19.4971 19.4515C19.8418 19.5629 20.1028 19.6726 20.2717 19.7509C20.356 19.7901 20.4172 19.8213 20.454 19.8408C20.4724 19.8505 20.4847 19.8573 20.4908 19.8608L20.4919 19.8613C20.8007 20.0435 21.1835 20.0464 21.4951 19.8689C21.8072 19.691 22 19.3593 22 19V6C22 5.64679 21.8137 5.31978 21.5098 5.13971L21.5085 5.13893L21.507 5.13807L21.5036 5.13607L21.4949 5.131L21.4699 5.11679C21.4499 5.10555 21.4232 5.09089 21.39 5.07329C21.3236 5.03812 21.2309 4.99119 21.1131 4.93656C20.8776 4.82736 20.541 4.68707 20.1123 4.54847C19.2546 4.27126 18.0255 4 16.5 4C14.9745 4 13.7454 4.27126 12.8877 4.54847C12.5235 4.66622 12.2257 4.78519 12 4.88528M20 6.6335V17.5129C19.1488 17.2485 17.9602 17 16.5 17C15.0398 17 13.8512 17.2485 13 17.5129V6.6335C13.1399 6.57696 13.308 6.51452 13.5029 6.45153C14.1921 6.22874 15.213 6 16.5 6C17.787 6 18.8079 6.22874 19.4971 6.45153C19.692 6.51452 19.8601 6.57696 20 6.6335ZM20.4908 6.86075C20.4935 6.86228 20.4952 6.86325 20.4952 6.86325L20.4939 6.86248L20.4908 6.86075ZM20.4908 19.8608L20.4941 19.8626L20.4919 19.8613" fill="#10EDD2"/>
</symbol>

<symbol id ="locationIcon" viewBox="0 0 24 24">
   <path d="M4 12C4 7.58172 7.58172 4 12 4C16.4183 4 20 7.58172 20 12C20 16.4183 16.4183 20 12 20C7.58172 20 4 16.4183 4 12ZM12 2C6.47715 2 2 6.47715 2 12C2 17.5228 6.47715 22 12 22C17.5228 22 22 17.5228 22 12C22 6.47715 17.5228 2 12 2ZM13.4142 13.4143L15.5356 8.46451L10.5858 10.5858L8.46448 15.5356L13.4142 13.4143Z" fill="#10EDD2"/>
</symbol>

<symbol id ="mailIcon" viewBox="0 0 24 24">
   <path d="M2 6C2 4.89543 2.89543 4 4 4H20C21.1046 4 22 4.89543 22 6V18C22 19.1046 21.1046 20 20 20H4C2.89543 20 2 19.1046 2 18V6ZM5.51859 6L12 11.6712L18.4814 6H5.51859ZM20 7.32877L12.6585 13.7526C12.2815 14.0825 11.7185 14.0825 11.3415 13.7526L4 7.32877V18H20V7.32877Z" fill="#10EDD2"/>
</symbol>

<symbol id ="profileIcon" viewBox="0 0 16 20">
   <path d="M0 2C0 0.895432 0.89543 0 2 0H14C15.1046 0 16 0.89543 16 2V19C16 19.3746 15.7907 19.7178 15.4576 19.8892C15.1245 20.0606 14.7236 20.0315 14.4188 19.8137L8 15.2289L1.58124 19.8137C1.27642 20.0315 0.875489 20.0606 0.542418 19.8892C0.209347 19.7178 0 19.3746 0 19V2ZM14 2L2 2V17.0568L7.41876 13.1863C7.76646 12.9379 8.23354 12.9379 8.58124 13.1863L14 17.0568V2Z" fill="#8A30CD"/>
</symbol>

<symbol id ="siteLogo" viewBox="0 0 24 24">
   <path fill="none" stroke="#000" stroke-width="1.5" d="M19.25 4.75H4.75v14.5h14.5V4.75Z"/><path fill="none" stroke="#000" stroke-width="1.5" d="M7.5 7.5l1.25 1.25L10 10l-2.5 2.5"/><path fill="none" stroke="#000" stroke-width="1.5" d="M16 12.25h-5"/>
</symbol>

</svg>
